<?xml version="1.0" standalone="no"?>
<!DOCTYPE svg PUBLIC "-//W3C//DTD SVG 20010904//EN"
 "http://www.w3.org/TR/2001/REC-SVG-20010904/DTD/svg10.dtd">
<svg version="1.0" xmlns="http://www.w3.org/2000/svg"
 width="24.000000pt" height="24.000000pt" viewBox="0 0 24.000000 24.000000"
 preserveAspectRatio="xMidYMid meet">

<g transform="translate(0.000000,24.000000) scale(0.100000,-0.100000)"
fill="#000000" stroke="none">
<path d="M98 180 c-13 -23 -24 -30 -48 -30 -35 0 -38 -10 -10 -35 13 -12 20
-31 20 -57 l0 -39 32 17 c29 15 33 15 60 0 l28 -17 0 39 c0 26 7 45 20 57 28
25 25 35 -10 35 -24 0 -35 7 -48 30 -9 16 -19 30 -22 30 -3 0 -13 -14 -22 -30z
m37 -10 c4 -13 19 -23 36 -27 27 -5 28 -7 14 -23 -8 -9 -15 -31 -15 -48 0 -30
-1 -31 -25 -20 -19 8 -31 8 -50 0 -24 -11 -25 -10 -25 20 0 17 -7 39 -15 48
-14 16 -13 18 14 23 17 4 32 14 36 27 3 11 10 20 15 20 5 0 12 -9 15 -20z"/>
</g>
</svg>
